<svg width="24" height="24" viewBox="0 0 24 24" fill="none" xmlns="http://www.w3.org/2000/svg">
<path d="M24 4.54227C23.1169 4.93387 22.1679 5.19852 21.1719 5.31759C22.1887 4.70821 22.9693 3.74324 23.3369 2.59349C22.3704 3.16704 21.3129 3.57114 20.2103 3.78834C19.312 2.83143 18.0324 2.2334 16.6162 2.2334C13.8968 2.2334 11.6921 4.43802 11.6921 7.15715C11.6921 7.54312 11.7357 7.91887 11.8196 8.27934C7.72744 8.07393 4.09931 6.11371 1.67072 3.13471C1.24697 3.86193 1.00416 4.70784 1.00416 5.61009C1.00416 7.3184 1.8735 8.82543 3.19462 9.70846C2.4127 9.68397 1.64798 9.47278 0.964313 9.09252C0.964031 9.11315 0.964031 9.13377 0.964031 9.15449C0.964031 11.5401 2.66128 13.5303 4.91372 13.9826C4.18864 14.1798 3.42809 14.2087 2.69016 14.067C3.31669 16.0232 5.13516 17.4467 7.28972 17.4865C5.60456 18.8071 3.48141 19.5943 1.17459 19.5943C0.777094 19.5943 0.385219 19.571 0 19.5255C2.17903 20.9226 4.76719 21.7377 7.54781 21.7377C16.6047 21.7377 21.5573 14.2348 21.5573 7.72818C21.5573 7.51462 21.5526 7.30227 21.543 7.09115C22.507 6.39429 23.339 5.53116 24 4.54227Z" fill="#55ACEE"/>
</svg>
