<svg width="57" height="48" viewBox="0 0 57 48" fill="none" xmlns="http://www.w3.org/2000/svg">
<path d="M17.4796 32.3169C17.9261 32.5831 18.277 32.949 18.5322 33.4148C18.7873 33.8805 18.9149 34.4128 18.9149 35.0449C18.9149 35.6437 18.7873 36.2092 18.5322 36.6749C18.277 37.1407 17.9261 37.5066 17.4796 37.7728C17.033 38.0389 16.5227 38.172 15.9485 38.172C15.5338 38.172 15.1511 38.0722 14.8002 37.9058C14.4493 37.7395 14.1623 37.5066 13.9071 37.174V40.3344H12.8545V31.9843H13.8752V32.949C14.0985 32.6163 14.4174 32.3502 14.7683 32.1839C15.1192 32.0175 15.5338 31.9177 15.9485 31.9177C16.5227 31.9177 17.033 32.0508 17.4796 32.3169ZM16.9054 36.9078C17.1925 36.7415 17.4477 36.4753 17.6072 36.1427C17.7666 35.81 17.8623 35.4441 17.8623 35.0116C17.8623 34.5791 17.7666 34.2132 17.6072 33.8805C17.4477 33.5478 17.1925 33.315 16.9054 33.1153C16.6183 32.949 16.2675 32.8492 15.8847 32.8492C15.5019 32.8492 15.183 32.949 14.8959 33.1153C14.6088 33.2817 14.3537 33.5478 14.1942 33.8805C14.0347 34.2132 13.939 34.5791 13.939 35.0116C13.939 35.4441 14.0347 35.81 14.1942 36.1427C14.3537 36.4753 14.6088 36.7082 14.8959 36.9078C15.183 37.0742 15.5338 37.174 15.9166 37.174C16.2675 37.174 16.5864 37.0742 16.9054 36.9078Z" fill="url(#paint0_linear_1_2755)"/>
<path d="M24.4008 32.5499C24.8474 32.9491 25.0387 33.5812 25.0387 34.4129V38.1055H24.018V37.3071C23.8267 37.6065 23.6034 37.8061 23.2525 37.9725C22.9335 38.1388 22.5508 38.2053 22.0723 38.2053C21.4025 38.2053 20.8921 38.039 20.5094 37.7063C20.1266 37.3736 19.9033 36.9412 19.9033 36.4089C19.9033 35.8766 20.0947 35.4441 20.4775 35.1115C20.8602 34.7788 21.4344 34.6125 22.2637 34.6125H23.9542V34.3796C23.9542 33.9138 23.8267 33.5479 23.5715 33.2818C23.3163 33.0156 22.9016 32.9158 22.3913 32.9158C22.0404 32.9158 21.7214 32.9824 21.3706 33.0822C21.0516 33.2152 20.7645 33.3483 20.5413 33.5479L20.0947 32.7162C20.3818 32.4501 20.7645 32.2837 21.1792 32.1507C21.5939 32.0176 22.0404 31.9511 22.5189 31.9511C23.3482 31.9178 23.9542 32.1174 24.4008 32.5499ZM23.3482 37.0077C23.6353 36.8081 23.8585 36.542 23.9861 36.2093V35.3443H22.3275C21.4344 35.3443 20.9878 35.6437 20.9878 36.2758C20.9878 36.5752 21.1154 36.8414 21.3387 37.0077C21.562 37.174 21.8809 37.2738 22.2956 37.2738C22.6784 37.3071 23.0292 37.2073 23.3482 37.0077Z" fill="url(#paint1_linear_1_2755)"/>
<path d="M31.6417 32.3169C32.0882 32.5831 32.4391 32.949 32.6943 33.4148C32.9494 33.8805 33.077 34.4128 33.077 35.0449C33.077 35.6437 32.9494 36.2092 32.6943 36.6749C32.4391 37.1407 32.0882 37.5066 31.6417 37.7728C31.1951 38.0389 30.6848 38.172 30.1106 38.172C29.696 38.172 29.3132 38.0722 28.9623 37.9058C28.6115 37.7395 28.3244 37.5066 28.0692 37.174V40.3344H27.0166V31.9843H28.0373V32.949C28.2606 32.6163 28.5796 32.3502 28.9304 32.1839C29.2813 32.0175 29.696 31.9177 30.1106 31.9177C30.6848 31.9177 31.1951 32.0508 31.6417 32.3169ZM31.0356 36.9078C31.3227 36.7415 31.5779 36.4753 31.7374 36.1427C31.8968 35.81 31.9925 35.4441 31.9925 35.0116C31.9925 34.5791 31.8968 34.2132 31.7374 33.8805C31.5779 33.5478 31.3227 33.315 31.0356 33.1153C30.7486 32.949 30.3977 32.8492 30.0149 32.8492C29.6322 32.8492 29.3132 32.949 29.0261 33.1153C28.739 33.2817 28.4839 33.5478 28.3244 33.8805C28.1649 34.2132 28.0692 34.5791 28.0692 35.0116C28.0692 35.4441 28.1649 35.81 28.3244 36.1427C28.4839 36.4753 28.739 36.7082 29.0261 36.9078C29.3132 37.0742 29.6641 37.174 30.0468 37.174C30.3977 37.174 30.7486 37.0742 31.0356 36.9078Z" fill="url(#paint2_linear_1_2755)"/>
<path d="M39.8079 35.3775H35.0552C35.119 35.9097 35.3423 36.3422 35.725 36.6749C36.1078 37.0076 36.5863 37.1739 37.1604 37.1739C37.8621 37.1739 38.4363 36.941 38.8509 36.442L39.4251 37.1406C39.1699 37.4733 38.8191 37.7062 38.4363 37.8725C38.0535 38.0388 37.607 38.1386 37.1285 38.1386C36.5225 38.1386 35.9483 38.0056 35.4699 37.7394C34.9914 37.4733 34.6086 37.1074 34.3535 36.6416C34.0983 36.1759 33.9707 35.6436 33.9707 35.0448C33.9707 34.446 34.0983 33.9137 34.3535 33.448C34.6086 32.9822 34.9595 32.6163 35.4061 32.3501C35.8526 32.084 36.363 31.9509 36.9052 31.9509C37.4794 31.9509 37.9578 32.084 38.4044 32.3501C38.8509 32.6163 39.1699 32.9822 39.4251 33.448C39.6803 33.9137 39.8079 34.4792 39.8079 35.0781C39.8398 35.1446 39.8398 35.2444 39.8079 35.3775ZM35.6612 33.3149C35.3104 33.6476 35.119 34.0468 35.0552 34.579H38.8191C38.7553 34.08 38.5639 33.6476 38.213 33.3149C37.8621 32.9822 37.4475 32.8159 36.9371 32.8159C36.4268 32.8159 36.0121 33.0155 35.6612 33.3149Z" fill="url(#paint3_linear_1_2755)"/>
<path d="M43.1248 32.1839C43.4756 31.9843 43.9222 31.9177 44.4326 31.9177V32.9823C44.3688 32.9823 44.305 32.9823 44.1774 32.9823C43.6032 32.9823 43.1567 33.1486 42.8377 33.5146C42.5187 33.8805 42.3592 34.3795 42.3592 35.0449V38.0722H41.3066V31.9843H42.3273V33.0155C42.4868 32.6496 42.7739 32.3835 43.1248 32.1839Z" fill="url(#paint4_linear_1_2755)"/>
<path d="M51.0989 35.3775H46.3462C46.41 35.9097 46.6333 36.3422 47.0161 36.6749C47.3988 37.0076 47.8773 37.1739 48.4514 37.1739C49.1532 37.1739 49.7273 36.941 50.142 36.442L50.7161 37.1406C50.4609 37.4733 50.1101 37.7062 49.7273 37.8725C49.3445 38.0388 48.898 38.1386 48.4195 38.1386C47.8135 38.1386 47.2393 38.0056 46.7609 37.7394C46.2824 37.4733 45.8997 37.1074 45.6445 36.6416C45.3893 36.1759 45.2617 35.6436 45.2617 35.0448C45.2617 34.446 45.3893 33.9137 45.6445 33.448C45.8997 32.9822 46.2505 32.6163 46.6971 32.3501C47.1436 32.084 47.654 31.9509 48.1963 31.9509C48.7704 31.9509 49.2489 32.084 49.6954 32.3501C50.142 32.6163 50.4609 32.9822 50.7161 33.448C50.9713 33.9137 51.0989 34.4792 51.0989 35.0781C51.1308 35.1446 51.1308 35.2444 51.0989 35.3775ZM46.9523 33.3149C46.6014 33.6476 46.41 34.0468 46.3462 34.579H50.1101C50.0463 34.08 49.8549 33.6476 49.504 33.3149C49.1532 32.9822 48.7385 32.8159 48.2281 32.8159C47.7178 32.8159 47.3031 33.0155 46.9523 33.3149Z" fill="url(#paint5_linear_1_2755)"/>
<path d="M52.5986 29.5225H53.6512V38.0722H52.5986V29.5225Z" fill="url(#paint6_linear_1_2755)"/>
<path d="M55.6602 29.5225H56.7128V38.0722H55.6602V29.5225Z" fill="url(#paint7_linear_1_2755)"/>
<g opacity="0.4">
<path opacity="0.4" d="M21.8181 10.2607C23.7319 11.1589 25.2311 12.4563 26.2837 14.1197C27.3363 15.7831 27.8466 17.7458 27.8466 19.9748C27.8466 22.2037 27.3363 24.1664 26.2837 25.8298C25.2311 27.4932 23.7638 28.7906 21.8181 29.6888C19.9043 30.587 17.6396 31.0195 15.024 31.0195H10.9731V38.7375H1.46777V20.2409L11.5153 8.89673H15.024C17.6396 8.89673 19.8724 9.36247 21.8181 10.2607ZM17.3206 22.5031C17.9585 21.9043 18.2775 21.0726 18.2775 19.9748C18.2775 18.8769 17.9585 18.0452 17.3206 17.4464C16.6827 16.8476 15.7257 16.5482 14.418 16.5482H10.9731V23.4346H14.418C15.6939 23.4013 16.6827 23.1019 17.3206 22.5031Z" fill="url(#paint8_linear_1_2755)"/>
</g>
<path d="M20.6377 9.02967C22.5516 9.92789 24.0507 11.2253 25.1033 12.8887C26.1559 14.552 26.6663 16.5148 26.6663 18.7437C26.6663 20.9726 26.1559 22.9354 25.1033 24.5988C24.0507 26.2621 22.5835 27.5596 20.6377 28.4578C18.7239 29.356 16.4592 29.7885 13.8437 29.7885H9.79276V37.5065H0.319336V19.0099L10.335 7.69897H13.8437C16.4592 7.69897 18.7239 8.13145 20.6377 9.02967ZM16.1403 21.3053C16.7782 20.7065 17.0972 19.8748 17.0972 18.777C17.0972 17.6792 16.7782 16.8475 16.1403 16.2487C15.5023 15.6499 14.5454 15.3505 13.2376 15.3505H9.79276V22.2368H13.2376C14.5454 22.2035 15.5023 21.9041 16.1403 21.3053Z" fill="url(#paint9_linear_1_2755)"/>
<path d="M10.4307 7.66577L11.0048 18.2115L0.319336 19.0099L10.4307 7.66577Z" fill="url(#paint10_linear_1_2755)"/>
<defs>
<linearGradient id="paint0_linear_1_2755" x1="34.6336" y1="46.9507" x2="44.4978" y2="13.1888" gradientUnits="userSpaceOnUse">
<stop stop-color="#E78FB7"/>
<stop offset="0.0303629" stop-color="#E08BB6"/>
<stop offset="0.1482" stop-color="#CA7FB3"/>
<stop offset="0.2673" stop-color="#BA77B1"/>
<stop offset="0.3874" stop-color="#B173B0"/>
<stop offset="0.5101" stop-color="#AE71B0"/>
<stop offset="1" stop-color="#4B3A96"/>
</linearGradient>
<linearGradient id="paint1_linear_1_2755" x1="34.6332" y1="46.9508" x2="44.4974" y2="13.1889" gradientUnits="userSpaceOnUse">
<stop stop-color="#E78FB7"/>
<stop offset="0.0303629" stop-color="#E08BB6"/>
<stop offset="0.1482" stop-color="#CA7FB3"/>
<stop offset="0.2673" stop-color="#BA77B1"/>
<stop offset="0.3874" stop-color="#B173B0"/>
<stop offset="0.5101" stop-color="#AE71B0"/>
<stop offset="1" stop-color="#4B3A96"/>
</linearGradient>
<linearGradient id="paint2_linear_1_2755" x1="34.6334" y1="46.9507" x2="44.4977" y2="13.1888" gradientUnits="userSpaceOnUse">
<stop stop-color="#E78FB7"/>
<stop offset="0.0303629" stop-color="#E08BB6"/>
<stop offset="0.1482" stop-color="#CA7FB3"/>
<stop offset="0.2673" stop-color="#BA77B1"/>
<stop offset="0.3874" stop-color="#B173B0"/>
<stop offset="0.5101" stop-color="#AE71B0"/>
<stop offset="1" stop-color="#4B3A96"/>
</linearGradient>
<linearGradient id="paint3_linear_1_2755" x1="34.634" y1="46.9506" x2="44.4982" y2="13.1888" gradientUnits="userSpaceOnUse">
<stop stop-color="#E78FB7"/>
<stop offset="0.0303629" stop-color="#E08BB6"/>
<stop offset="0.1482" stop-color="#CA7FB3"/>
<stop offset="0.2673" stop-color="#BA77B1"/>
<stop offset="0.3874" stop-color="#B173B0"/>
<stop offset="0.5101" stop-color="#AE71B0"/>
<stop offset="1" stop-color="#4B3A96"/>
</linearGradient>
<linearGradient id="paint4_linear_1_2755" x1="34.6336" y1="46.9507" x2="44.4978" y2="13.1888" gradientUnits="userSpaceOnUse">
<stop stop-color="#E78FB7"/>
<stop offset="0.0303629" stop-color="#E08BB6"/>
<stop offset="0.1482" stop-color="#CA7FB3"/>
<stop offset="0.2673" stop-color="#BA77B1"/>
<stop offset="0.3874" stop-color="#B173B0"/>
<stop offset="0.5101" stop-color="#AE71B0"/>
<stop offset="1" stop-color="#4B3A96"/>
</linearGradient>
<linearGradient id="paint5_linear_1_2755" x1="34.6334" y1="46.9506" x2="44.4977" y2="13.1888" gradientUnits="userSpaceOnUse">
<stop stop-color="#E78FB7"/>
<stop offset="0.0303629" stop-color="#E08BB6"/>
<stop offset="0.1482" stop-color="#CA7FB3"/>
<stop offset="0.2673" stop-color="#BA77B1"/>
<stop offset="0.3874" stop-color="#B173B0"/>
<stop offset="0.5101" stop-color="#AE71B0"/>
<stop offset="1" stop-color="#4B3A96"/>
</linearGradient>
<linearGradient id="paint6_linear_1_2755" x1="34.6339" y1="46.9507" x2="44.4981" y2="13.1888" gradientUnits="userSpaceOnUse">
<stop stop-color="#E78FB7"/>
<stop offset="0.0303629" stop-color="#E08BB6"/>
<stop offset="0.1482" stop-color="#CA7FB3"/>
<stop offset="0.2673" stop-color="#BA77B1"/>
<stop offset="0.3874" stop-color="#B173B0"/>
<stop offset="0.5101" stop-color="#AE71B0"/>
<stop offset="1" stop-color="#4B3A96"/>
</linearGradient>
<linearGradient id="paint7_linear_1_2755" x1="34.6335" y1="46.9507" x2="44.4977" y2="13.1888" gradientUnits="userSpaceOnUse">
<stop stop-color="#E78FB7"/>
<stop offset="0.0303629" stop-color="#E08BB6"/>
<stop offset="0.1482" stop-color="#CA7FB3"/>
<stop offset="0.2673" stop-color="#BA77B1"/>
<stop offset="0.3874" stop-color="#B173B0"/>
<stop offset="0.5101" stop-color="#AE71B0"/>
<stop offset="1" stop-color="#4B3A96"/>
</linearGradient>
<linearGradient id="paint8_linear_1_2755" x1="12.764" y1="49.1738" x2="16.1528" y2="1.88089" gradientUnits="userSpaceOnUse">
<stop stop-color="#E78FB7"/>
<stop offset="0.0303629" stop-color="#E08BB6"/>
<stop offset="0.1482" stop-color="#CA7FB3"/>
<stop offset="0.2673" stop-color="#BA77B1"/>
<stop offset="0.3874" stop-color="#B173B0"/>
<stop offset="0.5101" stop-color="#AE71B0"/>
<stop offset="1" stop-color="#4B3A96"/>
</linearGradient>
<linearGradient id="paint9_linear_1_2755" x1="11.6001" y1="47.9599" x2="14.9889" y2="0.666997" gradientUnits="userSpaceOnUse">
<stop stop-color="#E78FB7"/>
<stop offset="0.0303629" stop-color="#E08BB6"/>
<stop offset="0.1482" stop-color="#CA7FB3"/>
<stop offset="0.2673" stop-color="#BA77B1"/>
<stop offset="0.3874" stop-color="#B173B0"/>
<stop offset="0.5101" stop-color="#AE71B0"/>
<stop offset="1" stop-color="#4B3A96"/>
</linearGradient>
<linearGradient id="paint10_linear_1_2755" x1="5.89688" y1="18.7261" x2="0.655714" y2="-14.4213" gradientUnits="userSpaceOnUse">
<stop stop-color="#E78FB7"/>
<stop offset="0.0303629" stop-color="#E08BB6"/>
<stop offset="0.1482" stop-color="#CA7FB3"/>
<stop offset="0.2673" stop-color="#BA77B1"/>
<stop offset="0.3874" stop-color="#B173B0"/>
<stop offset="0.5101" stop-color="#AE71B0"/>
<stop offset="1" stop-color="#4B3A96"/>
</linearGradient>
</defs>
</svg>
