<svg width="112" height="48" viewBox="0 0 112 48" fill="none" xmlns="http://www.w3.org/2000/svg">
<path d="M20.6689 36.2135H25.0964V31.3719H27.549C31.2677 31.3719 33.7601 29.1821 33.7601 25.6705C33.7601 22.1986 31.3313 19.9053 27.7083 19.9053H20.6689V36.2135ZM25.0964 27.932V23.4408H26.6571C28.2099 23.4408 29.1415 24.269 29.1415 25.6705C29.1415 27.064 28.2099 27.932 26.6571 27.932H25.0964Z" fill="#1D293F"/>
<path d="M38.4952 36.4045C40.0877 36.4045 41.2901 35.863 42.0307 34.4935H42.1262V36.2135H46.2351V27.8363C46.2351 25.5749 44.0931 23.823 40.5973 23.823C36.9423 23.823 35.1427 25.7342 34.9914 27.9638H39.0366C39.1402 27.2073 39.6975 26.8489 40.5337 26.8489C41.2981 26.8489 41.8396 27.1994 41.8396 27.8363V27.8682C41.8396 28.577 41.0592 28.7998 39.0048 28.9511C36.4805 29.1343 34.5137 30.1536 34.5137 32.8371C34.5137 35.2738 36.154 36.4045 38.4952 36.4045ZM39.9284 33.6334C39.1799 33.6334 38.6544 33.2671 38.6544 32.5823C38.6544 31.9532 39.1003 31.4674 40.1196 31.3082C40.8203 31.1967 41.4096 31.0534 41.8714 30.8623V31.8815C41.8714 32.9964 40.9239 33.6334 39.9284 33.6334Z" fill="#1D293F"/>
<path d="M48.5225 40.8001H52.918V34.2067H52.9817C53.4913 35.4489 54.6698 36.3727 56.3898 36.3727C59.0017 36.3727 61.1995 34.3342 61.1995 30.0978C61.1995 25.6704 58.8425 23.823 56.4217 23.823C54.6062 23.823 53.4594 24.8741 52.9817 26.1163H52.8861V23.9823H48.5225V40.8001ZM52.8225 30.0978C52.8225 28.2823 53.5551 27.1994 54.7653 27.1994C55.9757 27.1994 56.6765 28.2823 56.6765 30.0978C56.6765 31.9134 55.9757 32.9964 54.7653 32.9964C53.5551 32.9964 52.8225 31.8815 52.8225 30.0978Z" fill="#1D293F"/>
<path d="M69.0889 36.4363C72.4812 36.4363 74.6631 34.8119 75.0771 32.2638H71.0637C70.8089 32.9566 70.0843 33.3467 69.1845 33.3467C67.8786 33.3467 67.1142 32.4868 67.1142 31.3082V31.1171H75.0771V30.0978C75.0771 26.2039 72.6882 23.823 68.9934 23.823C65.203 23.823 62.7822 26.3393 62.7822 30.1297C62.7822 34.0874 65.1712 36.4363 69.0889 36.4363ZM67.1142 28.6963C67.138 27.6373 68.014 26.9126 69.0889 26.9126C70.1798 26.9126 71.0081 27.6452 71.0319 28.6963H67.1142Z" fill="#1D293F"/>
<path d="M77.0576 36.2135H81.4532V29.843C81.4532 28.4415 82.4167 27.5179 83.7147 27.5179C84.1686 27.5179 84.9012 27.5894 85.3391 27.7408V23.9902C84.9888 23.8867 84.6065 23.823 84.2243 23.823C82.9183 23.823 81.8991 24.5874 81.4532 26.3075H81.3258V23.9823H77.0576V36.2135Z" fill="#1D293F"/>
<path d="M86.9668 36.2134H91.3623V23.9822H86.9668V36.2134ZM89.1646 22.7081C90.3591 22.7081 91.3305 21.8083 91.3305 20.7015C91.3305 19.5946 90.3591 18.6948 89.1646 18.6948C87.9702 18.6948 86.9987 19.5946 86.9987 20.7015C86.9987 21.8083 87.9702 22.7081 89.1646 22.7081Z" fill="#1D293F"/>
<path d="M97.1973 36.4045C98.7899 36.4045 99.9924 35.863 100.733 34.4935H100.828V36.2135H104.937V27.8363C104.937 25.5749 102.795 23.823 99.2995 23.823C95.6445 23.823 93.8449 25.7342 93.6936 27.9638H97.7388C97.8423 27.2073 98.3997 26.8489 99.2358 26.8489C100 26.8489 100.542 27.1994 100.542 27.8363V27.8682C100.542 28.577 99.7614 28.7998 97.7069 28.9511C95.1826 29.1343 93.2158 30.1536 93.2158 32.8371C93.2158 35.2738 94.8562 36.4045 97.1973 36.4045ZM98.6307 33.6334C97.8822 33.6334 97.3566 33.2671 97.3566 32.5823C97.3566 31.9532 97.8026 31.4674 98.8218 31.3082C99.5225 31.1967 100.112 31.0534 100.574 30.8623V31.8815C100.574 32.9964 99.626 33.6334 98.6307 33.6334Z" fill="#1D293F"/>
<path d="M111.62 19.9053H107.225V36.2135H111.62V19.9053Z" fill="#1D293F"/>
<path d="M0 17.5123C0 14.4028 1.29274 11.4332 3.56873 9.31454L5.84031 7.19995L17.1316 20.4034L0 30.8884V17.5123Z" fill="#FF6064"/>
<path d="M0.389648 32.442L6.61932 28.5586V35.9369L0.389648 32.442Z" fill="#C9484B"/>
</svg>
