<svg width="96" height="48" viewBox="0 0 96 48" fill="none" xmlns="http://www.w3.org/2000/svg">
<path d="M25.6904 34.2946V28.4314H29.5796V29.5654H26.9672V30.7666H29.1932V31.8922H26.9672V34.2946H25.6904Z" fill="black"/>
<path d="M30.2826 34.2946V29.8846H31.5258V30.8422H31.5678C31.5902 30.719 31.6294 30.6014 31.6854 30.4894C31.7414 30.3718 31.8142 30.2682 31.9038 30.1786C31.999 30.089 32.111 30.019 32.2398 29.9686C32.3686 29.9126 32.5198 29.8846 32.6934 29.8846H32.9118V31.0438H32.601C32.237 31.0438 31.9654 31.0914 31.7862 31.1866C31.6126 31.2818 31.5258 31.4582 31.5258 31.7158V34.2946H30.2826Z" fill="black"/>
<path d="M35.4773 34.3954C35.1413 34.3954 34.8417 34.3422 34.5785 34.2358C34.3153 34.1238 34.0913 33.9698 33.9065 33.7738C33.7273 33.5722 33.5901 33.3286 33.4949 33.043C33.4053 32.7574 33.3605 32.4382 33.3605 32.0854C33.3605 31.7382 33.4053 31.4246 33.4949 31.1446C33.5845 30.859 33.7161 30.6154 33.8897 30.4138C34.0689 30.2122 34.2873 30.0582 34.5449 29.9518C34.8025 29.8398 35.0965 29.7838 35.4269 29.7838C35.7909 29.7838 36.1017 29.8454 36.3593 29.9686C36.6225 30.0918 36.8353 30.257 36.9977 30.4642C37.1657 30.6714 37.2861 30.9122 37.3589 31.1866C37.4373 31.4554 37.4765 31.7382 37.4765 32.035V32.4046H34.6457V32.4718C34.6457 32.763 34.7241 32.9954 34.8809 33.169C35.0377 33.337 35.2841 33.421 35.6201 33.421C35.8777 33.421 36.0877 33.3706 36.2501 33.2698C36.4125 33.1634 36.5637 33.0374 36.7037 32.8918L37.3253 33.6646C37.1293 33.8942 36.8717 34.0734 36.5525 34.2022C36.2389 34.331 35.8805 34.3954 35.4773 34.3954ZM35.4521 30.6994C35.2001 30.6994 35.0013 30.7834 34.8557 30.9514C34.7157 31.1138 34.6457 31.3322 34.6457 31.6066V31.6738H36.1913V31.5982C36.1913 31.3294 36.1297 31.1138 36.0065 30.9514C35.8889 30.7834 35.7041 30.6994 35.4521 30.6994Z" fill="black"/>
<path d="M40.1941 34.3954C39.8581 34.3954 39.5585 34.3422 39.2953 34.2358C39.0321 34.1238 38.8081 33.9698 38.6233 33.7738C38.4441 33.5722 38.3069 33.3286 38.2117 33.043C38.1221 32.7574 38.0773 32.4382 38.0773 32.0854C38.0773 31.7382 38.1221 31.4246 38.2117 31.1446C38.3013 30.859 38.4329 30.6154 38.6065 30.4138C38.7857 30.2122 39.0041 30.0582 39.2617 29.9518C39.5193 29.8398 39.8133 29.7838 40.1437 29.7838C40.5077 29.7838 40.8185 29.8454 41.0761 29.9686C41.3393 30.0918 41.5521 30.257 41.7145 30.4642C41.8825 30.6714 42.0029 30.9122 42.0757 31.1866C42.1541 31.4554 42.1933 31.7382 42.1933 32.035V32.4046H39.3625V32.4718C39.3625 32.763 39.4409 32.9954 39.5977 33.169C39.7545 33.337 40.0009 33.421 40.3369 33.421C40.5945 33.421 40.8045 33.3706 40.9669 33.2698C41.1293 33.1634 41.2805 33.0374 41.4205 32.8918L42.0421 33.6646C41.8461 33.8942 41.5885 34.0734 41.2693 34.2022C40.9557 34.331 40.5973 34.3954 40.1941 34.3954ZM40.1689 30.6994C39.9169 30.6994 39.7181 30.7834 39.5725 30.9514C39.4325 31.1138 39.3625 31.3322 39.3625 31.6066V31.6738H40.9081V31.5982C40.9081 31.3294 40.8465 31.1138 40.7233 30.9514C40.6057 30.7834 40.4209 30.6994 40.1689 30.6994Z" fill="black"/>
<path d="M46.896 34.3954C46.56 34.3954 46.2604 34.3422 45.9972 34.2358C45.734 34.1238 45.51 33.9698 45.3252 33.7738C45.146 33.5722 45.0088 33.3286 44.9136 33.043C44.824 32.7574 44.7792 32.4382 44.7792 32.0854C44.7792 31.7382 44.824 31.4246 44.9136 31.1446C45.0032 30.859 45.1348 30.6154 45.3084 30.4138C45.4876 30.2122 45.706 30.0582 45.9636 29.9518C46.2212 29.8398 46.5152 29.7838 46.8456 29.7838C47.2096 29.7838 47.5204 29.8454 47.778 29.9686C48.0412 30.0918 48.254 30.257 48.4164 30.4642C48.5844 30.6714 48.7048 30.9122 48.7776 31.1866C48.856 31.4554 48.8952 31.7382 48.8952 32.035V32.4046H46.0644V32.4718C46.0644 32.763 46.1428 32.9954 46.2996 33.169C46.4564 33.337 46.7028 33.421 47.0388 33.421C47.2964 33.421 47.5064 33.3706 47.6688 33.2698C47.8312 33.1634 47.9824 33.0374 48.1224 32.8918L48.744 33.6646C48.548 33.8942 48.2904 34.0734 47.9712 34.2022C47.6576 34.331 47.2992 34.3954 46.896 34.3954ZM46.8708 30.6994C46.6188 30.6994 46.42 30.7834 46.2744 30.9514C46.1344 31.1138 46.0644 31.3322 46.0644 31.6066V31.6738H47.61V31.5982C47.61 31.3294 47.5484 31.1138 47.4252 30.9514C47.3076 30.7834 47.1228 30.6994 46.8708 30.6994Z" fill="black"/>
<path d="M51.2684 34.3954C50.8428 34.3954 50.4844 34.3282 50.1932 34.1938C49.902 34.0538 49.6416 33.8578 49.412 33.6058L50.1428 32.8666C50.2996 33.0402 50.4732 33.1774 50.6636 33.2782C50.854 33.379 51.0696 33.4294 51.3104 33.4294C51.5568 33.4294 51.7276 33.393 51.8228 33.3202C51.918 33.2418 51.9656 33.1382 51.9656 33.0094C51.9656 32.8022 51.8172 32.679 51.5204 32.6398L51.0416 32.581C50.0504 32.4578 49.5548 32.0042 49.5548 31.2202C49.5548 31.0074 49.594 30.8142 49.6724 30.6406C49.7564 30.4614 49.8712 30.3102 50.0168 30.187C50.168 30.0582 50.3472 29.9602 50.5544 29.893C50.7672 29.8202 51.0052 29.7838 51.2684 29.7838C51.498 29.7838 51.6996 29.8006 51.8732 29.8342C52.0524 29.8622 52.2092 29.907 52.3436 29.9686C52.4836 30.0246 52.6096 30.0974 52.7216 30.187C52.8392 30.271 52.954 30.3662 53.066 30.4726L52.352 31.2034C52.212 31.0634 52.0524 30.9542 51.8732 30.8758C51.6996 30.7918 51.5204 30.7498 51.3356 30.7498C51.1228 30.7498 50.9716 30.7834 50.882 30.8506C50.7924 30.9178 50.7476 31.0074 50.7476 31.1194C50.7476 31.237 50.7784 31.3294 50.84 31.3966C50.9072 31.4582 51.0304 31.503 51.2096 31.531L51.7052 31.5982C52.674 31.727 53.1584 32.1694 53.1584 32.9254C53.1584 33.1382 53.1136 33.3342 53.024 33.5134C52.9344 33.6926 52.8056 33.8494 52.6376 33.9838C52.4752 34.1126 52.2764 34.2134 52.0412 34.2862C51.8116 34.359 51.554 34.3954 51.2684 34.3954Z" fill="black"/>
<path d="M55.4438 34.3954C55.0182 34.3954 54.6598 34.3282 54.3686 34.1938C54.0774 34.0538 53.817 33.8578 53.5874 33.6058L54.3182 32.8666C54.475 33.0402 54.6486 33.1774 54.839 33.2782C55.0294 33.379 55.245 33.4294 55.4858 33.4294C55.7322 33.4294 55.903 33.393 55.9982 33.3202C56.0934 33.2418 56.141 33.1382 56.141 33.0094C56.141 32.8022 55.9926 32.679 55.6958 32.6398L55.217 32.581C54.2258 32.4578 53.7302 32.0042 53.7302 31.2202C53.7302 31.0074 53.7694 30.8142 53.8478 30.6406C53.9318 30.4614 54.0466 30.3102 54.1922 30.187C54.3434 30.0582 54.5226 29.9602 54.7298 29.893C54.9426 29.8202 55.1806 29.7838 55.4438 29.7838C55.6734 29.7838 55.875 29.8006 56.0486 29.8342C56.2278 29.8622 56.3846 29.907 56.519 29.9686C56.659 30.0246 56.785 30.0974 56.897 30.187C57.0146 30.271 57.1294 30.3662 57.2414 30.4726L56.5274 31.2034C56.3874 31.0634 56.2278 30.9542 56.0486 30.8758C55.875 30.7918 55.6958 30.7498 55.511 30.7498C55.2982 30.7498 55.147 30.7834 55.0574 30.8506C54.9678 30.9178 54.923 31.0074 54.923 31.1194C54.923 31.237 54.9538 31.3294 55.0154 31.3966C55.0826 31.4582 55.2058 31.503 55.385 31.531L55.8806 31.5982C56.8494 31.727 57.3338 32.1694 57.3338 32.9254C57.3338 33.1382 57.289 33.3342 57.1994 33.5134C57.1098 33.6926 56.981 33.8494 56.813 33.9838C56.6506 34.1126 56.4518 34.2134 56.2166 34.2862C55.987 34.359 55.7294 34.3954 55.4438 34.3954Z" fill="black"/>
<path d="M61.4406 34.2946C61.2166 34.2946 61.029 34.2246 60.8778 34.0846C60.7322 33.9446 60.6398 33.757 60.6006 33.5218H60.5502C60.483 33.8074 60.3346 34.0258 60.105 34.177C59.8754 34.3226 59.5926 34.3954 59.2566 34.3954C58.8142 34.3954 58.4754 34.2778 58.2402 34.0426C58.005 33.8074 57.8874 33.4966 57.8874 33.1102C57.8874 32.6454 58.0554 32.301 58.3914 32.077C58.733 31.8474 59.195 31.7326 59.7774 31.7326H60.4746V31.4554C60.4746 31.2426 60.4186 31.0746 60.3066 30.9514C60.1946 30.8226 60.007 30.7582 59.7438 30.7582C59.4974 30.7582 59.3014 30.8114 59.1558 30.9178C59.0102 31.0242 58.8898 31.1446 58.7946 31.279L58.0554 30.6238C58.2346 30.3606 58.4586 30.1562 58.7274 30.0106C59.0018 29.8594 59.3714 29.7838 59.8362 29.7838C60.4634 29.7838 60.9338 29.921 61.2474 30.1954C61.561 30.4698 61.7178 30.8702 61.7178 31.3966V33.3286H62.1294V34.2946H61.4406ZM59.7186 33.5302C59.9258 33.5302 60.1022 33.4854 60.2478 33.3958C60.399 33.3062 60.4746 33.1606 60.4746 32.959V32.4382H59.8698C59.3826 32.4382 59.139 32.6034 59.139 32.9338V33.0598C59.139 33.2222 59.1894 33.3426 59.2902 33.421C59.391 33.4938 59.5338 33.5302 59.7186 33.5302Z" fill="black"/>
<path d="M65.5864 29.8846H66.7456L65.0488 34.975C64.9368 35.3166 64.7772 35.5686 64.57 35.731C64.3684 35.8934 64.0772 35.9746 63.6964 35.9746H62.9236V35.0086H63.7552L63.9064 34.5214L62.3608 29.8846H63.5956L64.2424 31.9426L64.5616 33.2194H64.612L64.9396 31.9426L65.5864 29.8846Z" fill="black"/>
<path d="M68.7985 34.3954C68.3729 34.3954 68.0145 34.3282 67.7233 34.1938C67.4321 34.0538 67.1717 33.8578 66.9421 33.6058L67.6729 32.8666C67.8297 33.0402 68.0033 33.1774 68.1937 33.2782C68.3841 33.379 68.5997 33.4294 68.8405 33.4294C69.0869 33.4294 69.2577 33.393 69.3529 33.3202C69.4481 33.2418 69.4957 33.1382 69.4957 33.0094C69.4957 32.8022 69.3473 32.679 69.0505 32.6398L68.5717 32.581C67.5805 32.4578 67.0849 32.0042 67.0849 31.2202C67.0849 31.0074 67.1241 30.8142 67.2025 30.6406C67.2865 30.4614 67.4013 30.3102 67.5469 30.187C67.6981 30.0582 67.8773 29.9602 68.0845 29.893C68.2973 29.8202 68.5353 29.7838 68.7985 29.7838C69.0281 29.7838 69.2297 29.8006 69.4033 29.8342C69.5825 29.8622 69.7393 29.907 69.8737 29.9686C70.0137 30.0246 70.1397 30.0974 70.2517 30.187C70.3693 30.271 70.4841 30.3662 70.5961 30.4726L69.8821 31.2034C69.7421 31.0634 69.5825 30.9542 69.4033 30.8758C69.2297 30.7918 69.0505 30.7498 68.8657 30.7498C68.6529 30.7498 68.5017 30.7834 68.4121 30.8506C68.3225 30.9178 68.2777 31.0074 68.2777 31.1194C68.2777 31.237 68.3085 31.3294 68.3701 31.3966C68.4373 31.4582 68.5605 31.503 68.7397 31.531L69.2353 31.5982C70.2041 31.727 70.6885 32.1694 70.6885 32.9254C70.6885 33.1382 70.6437 33.3342 70.5541 33.5134C70.4645 33.6926 70.3357 33.8494 70.1677 33.9838C70.0053 34.1126 69.8065 34.2134 69.5713 34.2862C69.3417 34.359 69.0841 34.3954 68.7985 34.3954Z" fill="black"/>
<path d="M3.30437 17.764C2.81235 17.5982 2.36505 17.4324 1.96249 17.2666C1.55993 17.0897 1.21328 16.8797 0.922539 16.6365C0.6318 16.3933 0.402562 16.1059 0.234828 15.7743C0.078276 15.4316 0 15.0171 0 14.5307C0 13.5912 0.363424 12.8395 1.09027 12.2757C1.8283 11.712 2.85707 11.4301 4.17659 11.4301C4.65742 11.4301 5.10472 11.4633 5.51846 11.5296C5.93221 11.5959 6.28445 11.7009 6.57519 11.8446C6.87711 11.9773 7.11194 12.1542 7.27967 12.3752C7.44741 12.5853 7.53127 12.834 7.53127 13.1214C7.53127 13.4088 7.46418 13.6575 7.32999 13.8675C7.1958 14.0665 7.03366 14.2378 6.84356 14.3815C6.59755 14.2268 6.26767 14.0941 5.85393 13.9836C5.44018 13.862 4.9873 13.8012 4.49528 13.8012C3.99208 13.8012 3.62306 13.873 3.38823 14.0167C3.15341 14.1494 3.03599 14.3207 3.03599 14.5307C3.03599 14.6965 3.10868 14.8347 3.25405 14.9453C3.39942 15.0447 3.61747 15.1387 3.90821 15.2271L4.7972 15.509C5.84834 15.8406 6.65346 16.2662 7.21258 16.7857C7.78287 17.2942 8.06802 17.9906 8.06802 18.8749C8.06802 19.8145 7.69342 20.5772 6.9442 21.1631C6.19499 21.7379 5.09353 22.0253 3.63984 22.0253C3.12545 22.0253 2.64461 21.9811 2.19732 21.8926C1.76121 21.8153 1.37542 21.6992 1.03995 21.5444C0.715667 21.3786 0.458474 21.1797 0.268375 20.9475C0.0894584 20.7043 0 20.428 0 20.1185C0 19.7979 0.0950494 19.5271 0.285148 19.306C0.475247 19.0739 0.68212 18.897 0.905765 18.7754C1.21887 19.0186 1.59907 19.2286 2.04636 19.4055C2.50483 19.5824 3.00244 19.6708 3.53919 19.6708C4.08713 19.6708 4.47292 19.5879 4.69656 19.4221C4.92021 19.2563 5.03203 19.0628 5.03203 18.8418C5.03203 18.6207 4.94257 18.4549 4.76366 18.3443C4.58474 18.2227 4.33314 18.1067 4.00885 17.9961L3.30437 17.764Z" fill="black"/>
<path d="M12.5009 18.991C12.5009 19.2784 12.5904 19.4829 12.7693 19.6045C12.9594 19.7261 13.2222 19.7869 13.5577 19.7869C13.7254 19.7869 13.8987 19.7758 14.0776 19.7537C14.2565 19.7205 14.4131 19.6819 14.5473 19.6376C14.6479 19.7592 14.7318 19.8974 14.7989 20.0522C14.8772 20.1959 14.9163 20.3727 14.9163 20.5827C14.9163 21.0028 14.7542 21.3455 14.4299 21.6108C14.1168 21.876 13.5577 22.0087 12.7525 22.0087C11.7685 22.0087 11.0081 21.7876 10.4713 21.3455C9.94577 20.9033 9.68299 20.1848 9.68299 19.19V12.0934C9.80599 12.0602 9.97932 12.027 10.203 11.9939C10.4378 11.9497 10.6838 11.9275 10.941 11.9275C11.433 11.9275 11.8132 12.016 12.0816 12.1928C12.3611 12.3586 12.5009 12.7179 12.5009 13.2706V14.3318H14.6982C14.7653 14.4534 14.8268 14.6081 14.8828 14.796C14.9498 14.9729 14.9834 15.1719 14.9834 15.3929C14.9834 15.7798 14.8939 16.0617 14.715 16.2386C14.5473 16.4044 14.318 16.4873 14.0273 16.4873H12.5009V18.991Z" fill="black"/>
<path d="M16.575 13.8178C16.6869 13.7846 16.8602 13.7514 17.095 13.7183C17.341 13.6851 17.5926 13.6685 17.8498 13.6685C18.0958 13.6685 18.3139 13.6851 18.504 13.7183C18.7053 13.7514 18.873 13.8178 19.0072 13.9172C19.1414 14.0167 19.242 14.1549 19.3091 14.3318C19.3874 14.4976 19.4265 14.7187 19.4265 14.995V18.5599C19.4265 19.0131 19.5383 19.3392 19.762 19.5381C19.9856 19.7261 20.3099 19.82 20.7348 19.82C20.992 19.82 21.1989 19.7979 21.3555 19.7537C21.5232 19.7095 21.6518 19.6653 21.7413 19.6211V13.8178C21.8531 13.7846 22.0264 13.7514 22.2612 13.7183C22.5072 13.6851 22.7588 13.6685 23.016 13.6685C23.262 13.6685 23.4801 13.6851 23.6702 13.7183C23.8715 13.7514 24.0392 13.8178 24.1734 13.9172C24.3076 14.0167 24.4082 14.1549 24.4753 14.3318C24.5536 14.4976 24.5927 14.7187 24.5927 14.995V20.0356C24.5927 20.5883 24.3579 21.0028 23.8883 21.2791C23.4969 21.5223 23.0272 21.7047 22.4793 21.8263C21.9425 21.959 21.3555 22.0253 20.7181 22.0253C20.1142 22.0253 19.5551 21.959 19.0407 21.8263C18.5375 21.6937 18.1014 21.4892 17.7324 21.2128C17.3634 20.9365 17.0782 20.5827 16.877 20.1516C16.6757 19.7095 16.575 19.1789 16.575 18.5599V13.8178Z" fill="black"/>
<path d="M26.1951 17.7308C26.1951 17.0013 26.3069 16.3712 26.5306 15.8406C26.7542 15.299 27.0618 14.8513 27.4531 14.4976C27.8557 14.1439 28.3198 13.8841 28.8453 13.7183C29.3821 13.5414 29.958 13.453 30.573 13.453C30.7966 13.453 31.0147 13.4751 31.2272 13.5193C31.4396 13.5525 31.6129 13.5967 31.7471 13.652V10.9659C31.859 10.9327 32.0379 10.8995 32.2839 10.8664C32.5299 10.8222 32.7815 10.8 33.0387 10.8C33.2847 10.8 33.5028 10.8166 33.6929 10.8498C33.8941 10.883 34.0619 10.9493 34.1961 11.0488C34.3302 11.1482 34.4309 11.2864 34.498 11.4633C34.5651 11.6291 34.5986 11.8502 34.5986 12.1265V19.9858C34.5986 20.5054 34.3526 20.9199 33.8606 21.2294C33.5363 21.4394 33.117 21.6218 32.6026 21.7766C32.0882 21.9424 31.4955 22.0253 30.8246 22.0253C30.0977 22.0253 29.4436 21.9258 28.8621 21.7268C28.2918 21.5279 27.8054 21.2404 27.4028 20.8646C27.0114 20.4888 26.7095 20.0411 26.497 19.5216C26.2958 18.991 26.1951 18.3941 26.1951 17.7308ZM30.9588 15.6582C30.3549 15.6582 29.8909 15.8296 29.5666 16.1722C29.2423 16.5149 29.0802 17.0344 29.0802 17.7308C29.0802 18.4162 29.2311 18.9357 29.533 19.2894C29.835 19.6321 30.2711 19.8034 30.8414 19.8034C31.0427 19.8034 31.2216 19.7758 31.3781 19.7205C31.5459 19.6542 31.6745 19.5824 31.7639 19.505V15.8572C31.5403 15.7246 31.2719 15.6582 30.9588 15.6582Z" fill="black"/>
<path d="M37.86 19.704C37.737 19.4276 37.6028 19.1181 37.4574 18.7754C37.3233 18.4328 37.1779 18.0403 37.0213 17.5982C36.876 17.156 36.7194 16.6531 36.5517 16.0893C36.3951 15.5145 36.2274 14.8568 36.0485 14.1162C36.205 13.9615 36.4119 13.8288 36.6691 13.7183C36.9375 13.5967 37.2282 13.5359 37.5413 13.5359C37.9327 13.5359 38.257 13.6188 38.5142 13.7846C38.7714 13.9394 38.9615 14.2378 39.0845 14.68L40.4096 19.2397H40.4767C40.6108 18.8639 40.7394 18.4549 40.8624 18.0127C40.9966 17.5706 41.1252 17.1173 41.2482 16.6531C41.3712 16.1778 41.4831 15.708 41.5837 15.2437C41.6955 14.7684 41.7906 14.3041 41.8689 13.8509C42.2714 13.6409 42.7131 13.5359 43.194 13.5359C43.5853 13.5359 43.9096 13.6188 44.1668 13.7846C44.424 13.9504 44.5526 14.2378 44.5526 14.6468C44.5526 14.9453 44.5135 15.2935 44.4352 15.6914C44.3569 16.0783 44.2507 16.4928 44.1165 16.935C43.9935 17.3771 43.8425 17.8359 43.6636 18.3112C43.4959 18.7754 43.317 19.2342 43.1269 19.6874C42.9368 20.1406 42.7411 20.5717 42.5398 20.9807C42.3385 21.3786 42.1428 21.7379 41.9527 22.0584C41.6396 22.6001 41.3489 23.0422 41.0805 23.3849C40.8121 23.7276 40.5549 23.9929 40.3089 24.1808C40.0629 24.3798 39.8169 24.5124 39.5709 24.5787C39.3249 24.6561 39.0677 24.6948 38.7993 24.6948C38.3297 24.6948 37.9495 24.5566 37.6587 24.2803C37.368 24.0039 37.1947 23.6447 37.1387 23.2025C37.4966 22.9262 37.8544 22.6167 38.2122 22.274C38.5701 21.9424 38.8944 21.5997 39.1851 21.246C38.995 21.1907 38.7881 21.0636 38.5645 20.8646C38.352 20.6546 38.1172 20.2677 37.86 19.704Z" fill="black"/>
<path d="M53.2795 19.2894C53.1341 19.411 52.944 19.5105 52.7092 19.5879C52.4856 19.6542 52.2228 19.6874 51.9209 19.6874C51.5183 19.6874 51.1828 19.6376 50.9145 19.5381C50.6573 19.4387 50.4895 19.2673 50.4113 19.0241C50.0981 18.0514 49.841 17.2666 49.6397 16.6697C49.4384 16.0617 49.2818 15.5311 49.17 15.0779H49.0861C49.0526 15.7301 49.0246 16.327 49.0023 16.8686C48.9911 17.3992 48.9799 17.9188 48.9687 18.4272C48.9687 18.9357 48.9576 19.4497 48.9352 19.9693C48.924 20.4888 48.9016 21.0636 48.8681 21.6937C48.7227 21.7489 48.5326 21.7931 48.2978 21.8263C48.063 21.8705 47.8281 21.8926 47.5933 21.8926C47.1013 21.8926 46.7155 21.8153 46.4359 21.6605C46.1676 21.5057 46.0334 21.2239 46.0334 20.8149L46.5198 12.3586C46.6093 12.2149 46.805 12.0602 47.1069 11.8944C47.4088 11.7286 47.8337 11.6457 48.3817 11.6457C48.9743 11.6457 49.4384 11.7396 49.7739 11.9275C50.1093 12.1044 50.3553 12.3973 50.5119 12.8063C50.6125 13.0716 50.7188 13.3756 50.8306 13.7183C50.9536 14.0609 51.071 14.4147 51.1828 14.7794C51.3058 15.1442 51.4232 15.509 51.5351 15.8738C51.6469 16.2275 51.7475 16.5481 51.837 16.8355H51.9209C52.1892 15.9069 52.4576 15.0116 52.726 14.1494C52.9944 13.2761 53.2404 12.5466 53.464 11.9607C53.6317 11.8723 53.8442 11.8004 54.1014 11.7452C54.3698 11.6788 54.6661 11.6457 54.9904 11.6457C55.5383 11.6457 55.9856 11.7286 56.3323 11.8944C56.6789 12.0491 56.8802 12.2757 56.9361 12.5742C56.9808 12.7953 57.0256 13.1379 57.0703 13.6022C57.1262 14.0554 57.1821 14.5694 57.238 15.1442C57.2939 15.719 57.3499 16.327 57.4058 16.9681C57.4617 17.6092 57.512 18.2283 57.5567 18.8252C57.6126 19.411 57.6574 19.9527 57.6909 20.4501C57.7245 20.9365 57.7468 21.3123 57.758 21.5776C57.5679 21.6881 57.3666 21.7655 57.1542 21.8097C56.9529 21.865 56.6901 21.8926 56.3658 21.8926C55.9409 21.8926 55.5831 21.8208 55.2923 21.6771C55.0016 21.5334 54.845 21.2515 54.8227 20.8315C54.7556 19.6266 54.7108 18.5433 54.6885 17.5816C54.6773 16.6199 54.6549 15.813 54.6214 15.1608H54.5375C54.4257 15.5919 54.2635 16.1336 54.0511 16.7857C53.8386 17.4379 53.5814 18.2725 53.2795 19.2894Z" fill="black"/>
<path d="M67.9809 17.7308C67.9809 18.4162 67.8747 19.0297 67.6622 19.5713C67.4497 20.1019 67.1478 20.5496 66.7564 20.9144C66.3762 21.2791 65.9178 21.5555 65.381 21.7434C64.8443 21.9313 64.246 22.0253 63.5863 22.0253C62.9265 22.0253 62.3283 21.9258 61.7915 21.7268C61.2547 21.5279 60.7907 21.246 60.3993 20.8812C60.0191 20.5054 59.7228 20.0522 59.5103 19.5216C59.2979 18.991 59.1916 18.3941 59.1916 17.7308C59.1916 17.0787 59.2979 16.4873 59.5103 15.9567C59.7228 15.4261 60.0191 14.9784 60.3993 14.6136C60.7907 14.2378 61.2547 13.9504 61.7915 13.7514C62.3283 13.5525 62.9265 13.453 63.5863 13.453C64.246 13.453 64.8443 13.558 65.381 13.768C65.9178 13.967 66.3762 14.2544 66.7564 14.6302C67.1478 14.995 67.4497 15.4427 67.6622 15.9733C67.8747 16.5039 67.9809 17.0897 67.9809 17.7308ZM62.1102 17.7308C62.1102 18.4051 62.2388 18.9247 62.496 19.2894C62.7644 19.6432 63.1334 19.82 63.603 19.82C64.0727 19.82 64.4305 19.6376 64.6765 19.2729C64.9337 18.9081 65.0623 18.3941 65.0623 17.7308C65.0623 17.0676 64.9337 16.5591 64.6765 16.2054C64.4193 15.8406 64.0559 15.6582 63.5863 15.6582C63.1166 15.6582 62.7532 15.8406 62.496 16.2054C62.2388 16.5591 62.1102 17.0676 62.1102 17.7308Z" fill="black"/>
<path d="M78.0188 17.7308C78.0188 18.4162 77.9125 19.0297 77.7001 19.5713C77.4876 20.1019 77.1857 20.5496 76.7943 20.9144C76.4141 21.2791 75.9556 21.5555 75.4189 21.7434C74.8821 21.9313 74.2839 22.0253 73.6241 22.0253C72.9644 22.0253 72.3661 21.9258 71.8294 21.7268C71.2926 21.5279 70.8285 21.246 70.4372 20.8812C70.057 20.5054 69.7606 20.0522 69.5482 19.5216C69.3357 18.991 69.2295 18.3941 69.2295 17.7308C69.2295 17.0787 69.3357 16.4873 69.5482 15.9567C69.7606 15.4261 70.057 14.9784 70.4372 14.6136C70.8285 14.2378 71.2926 13.9504 71.8294 13.7514C72.3661 13.5525 72.9644 13.453 73.6241 13.453C74.2839 13.453 74.8821 13.558 75.4189 13.768C75.9556 13.967 76.4141 14.2544 76.7943 14.6302C77.1857 14.995 77.4876 15.4427 77.7001 15.9733C77.9125 16.5039 78.0188 17.0897 78.0188 17.7308ZM72.148 17.7308C72.148 18.4051 72.2766 18.9247 72.5338 19.2894C72.8022 19.6432 73.1712 19.82 73.6409 19.82C74.1105 19.82 74.4684 19.6376 74.7144 19.2729C74.9716 18.9081 75.1002 18.3941 75.1002 17.7308C75.1002 17.0676 74.9716 16.5591 74.7144 16.2054C74.4572 15.8406 74.0938 15.6582 73.6241 15.6582C73.1544 15.6582 72.791 15.8406 72.5338 16.2054C72.2766 16.5591 72.148 17.0676 72.148 17.7308Z" fill="black"/>
<path d="M86.4967 19.3558C86.4967 20.1959 86.178 20.8536 85.5406 21.3289C84.9032 21.8042 83.9639 22.0419 82.7227 22.0419C82.253 22.0419 81.8169 22.0087 81.4143 21.9424C81.0118 21.876 80.6651 21.7766 80.3744 21.6439C80.0948 21.5002 79.8712 21.3234 79.7034 21.1133C79.5469 20.9033 79.4686 20.6546 79.4686 20.3672C79.4686 20.1019 79.5245 19.8808 79.6363 19.704C79.7482 19.516 79.8823 19.3613 80.0389 19.2397C80.3632 19.4166 80.7322 19.5768 81.146 19.7205C81.5709 19.8532 82.0573 19.9195 82.6052 19.9195C82.9519 19.9195 83.2147 19.8698 83.3936 19.7703C83.5837 19.6708 83.6787 19.5381 83.6787 19.3723C83.6787 19.2176 83.6116 19.096 83.4775 19.0076C83.3433 18.9191 83.1196 18.8473 82.8065 18.792L82.3033 18.6925C81.3305 18.5046 80.6036 18.2117 80.1228 17.8137C79.6531 17.4047 79.4183 16.8244 79.4183 16.0728C79.4183 15.6638 79.5077 15.2935 79.6867 14.9618C79.8656 14.6302 80.1172 14.3539 80.4415 14.1328C80.7658 13.9117 81.1515 13.7404 81.5988 13.6188C82.0573 13.4972 82.5605 13.4364 83.1084 13.4364C83.5222 13.4364 83.908 13.4696 84.2658 13.5359C84.6348 13.5912 84.9535 13.6796 85.2219 13.8012C85.4903 13.9228 85.7027 14.0831 85.8593 14.282C86.0158 14.4699 86.0941 14.6965 86.0941 14.9618C86.0941 15.2161 86.0438 15.4372 85.9432 15.6251C85.8537 15.8019 85.7363 15.9512 85.5909 16.0728C85.5014 16.0175 85.3673 15.9622 85.1883 15.9069C85.0094 15.8406 84.8137 15.7854 84.6013 15.7411C84.3888 15.6859 84.1708 15.6417 83.9471 15.6085C83.7346 15.5753 83.539 15.5587 83.36 15.5587C82.991 15.5587 82.7059 15.603 82.5046 15.6914C82.3033 15.7688 82.2027 15.8959 82.2027 16.0728C82.2027 16.1943 82.2586 16.2938 82.3704 16.3712C82.4822 16.4486 82.6947 16.5204 83.0078 16.5868L83.5278 16.7028C84.6013 16.946 85.3617 17.2832 85.809 17.7143C86.2674 18.1343 86.4967 18.6815 86.4967 19.3558Z" fill="black"/>
<path d="M92.4776 22.0253C91.8178 22.0253 91.2028 21.9368 90.6325 21.76C90.0734 21.5721 89.5814 21.2957 89.1564 20.9309C88.7427 20.5662 88.4128 20.1074 88.1668 19.5547C87.932 19.002 87.8146 18.3554 87.8146 17.6148C87.8146 16.8852 87.932 16.2607 88.1668 15.7411C88.4128 15.2106 88.7315 14.7794 89.1229 14.4478C89.5143 14.1052 89.9616 13.8564 90.4648 13.7017C90.968 13.5359 91.4824 13.453 92.0079 13.453C92.6006 13.453 93.1373 13.5414 93.6182 13.7183C94.1102 13.8951 94.5295 14.1383 94.8762 14.4478C95.234 14.7573 95.508 15.1276 95.6981 15.5587C95.8994 15.9899 96 16.4596 96 16.9681C96 17.344 95.8938 17.6314 95.6813 17.8303C95.4688 18.0293 95.1725 18.1564 94.7923 18.2117L90.6493 18.8252C90.7723 19.19 91.0239 19.4663 91.4041 19.6542C91.7843 19.8311 92.2204 19.9195 92.7124 19.9195C93.1709 19.9195 93.6014 19.8642 94.004 19.7537C94.4177 19.6321 94.7532 19.4939 95.0104 19.3392C95.1893 19.4497 95.3402 19.6045 95.4632 19.8034C95.5863 20.0024 95.6478 20.2124 95.6478 20.4335C95.6478 20.9309 95.4129 21.3012 94.9433 21.5444C94.5854 21.7323 94.1829 21.8595 93.7356 21.9258C93.2883 21.9921 92.869 22.0253 92.4776 22.0253ZM92.0079 15.509C91.7395 15.509 91.5047 15.5532 91.3034 15.6417C91.1133 15.7301 90.9568 15.8461 90.8338 15.9899C90.7108 16.1225 90.6157 16.2773 90.5486 16.4541C90.4927 16.6199 90.4592 16.7913 90.448 16.9681L93.3163 16.5039C93.2827 16.2828 93.1597 16.0617 92.9472 15.8406C92.7348 15.6195 92.4217 15.509 92.0079 15.509Z" fill="black"/>
</svg>
